<svg width="140" height="140" viewBox="0 0 140 140" fill="none" xmlns="http://www.w3.org/2000/svg">
<path d="M96.5724 27.593C88.2363 22.404 78.7268 19.8043 68.7253 19.9604C66.0215 20.0186 59.5053 20.9673 56.8975 21.6825C43.4406 25.4593 32.578 34.0727 25.9763 46.2038C21.8373 53.8523 19.7906 62.3285 19.9758 71.2486C20.0194 73.8425 20.9163 80.1706 21.5579 82.5516C25.2249 96.0674 33.6183 106.91 45.6965 113.693C53.4507 118.058 62.5363 120.244 71.7705 120.004C74.1809 119.947 80.2864 119.058 82.6127 118.425C91.5192 116.038 99.4793 111.384 105.931 104.825C108.267 102.444 112.031 97.3944 113.634 94.4908C116.454 89.3969 118.064 84.9127 119.157 79.1896C121.993 64.2516 117.787 48.7731 107.76 37.176C104.932 33.8971 100.172 29.8369 96.5724 27.593ZM95.3302 55.0625C96.5947 56.4441 97.1965 57.405 97.8596 59.1678C99.099 62.4823 99.0202 65.9608 97.6016 68.9773C97.2401 69.7568 95.3508 72.4225 90.9714 78.3305C85.7738 85.3363 84.7839 86.5988 84.4046 86.682C84.1622 86.7452 81.6645 86.3959 78.8493 85.8831C74.6011 85.1317 73.6185 85.0091 73.2241 85.2762C72.8765 85.4806 71.4932 87.3037 68.7389 91.1298C66.4716 94.2699 64.4804 96.9084 64.1291 97.1832C62.3653 98.6982 59.6491 97.3322 59.8609 95.0506C59.9094 94.3306 60.2601 93.8601 75.6545 73.2073C84.3044 61.6028 91.4701 52.0877 91.568 52.0874C91.8965 52.0395 94.3014 53.9541 95.3302 55.0625ZM71.0773 38.2531C71.8055 39.601 71.891 39.4208 66.6316 46.6732C62.0578 52.973 61.8982 53.2199 61.8964 53.8772C61.8946 54.5345 62.5127 55.7027 62.8806 55.733C62.9668 55.7485 65.3984 52.5845 68.2739 48.7267C73.4054 41.8425 73.5223 41.6856 74.1557 41.5235C76.1184 40.9861 77.7237 42.4998 77.3821 44.5627C77.2975 45.0363 76.3393 46.4201 72.1897 51.9871L67.105 58.8086L67.5443 59.1361C67.7796 59.3115 68.2183 59.4434 68.5078 59.4152C69.7051 59.3807 69.7793 59.314 74.9658 52.5195L79.8836 46.0857L80.7246 46.0052C82.3012 45.8875 83.3291 46.7025 83.5298 48.2669L83.6541 49.2134L79.0607 55.4742C74.1399 62.174 73.4459 62.9741 71.7503 63.8081C69.7578 64.8112 67.6527 64.8521 65.298 63.9507L64.1108 63.4805L56.0804 74.2539L48.05 85.0272L47.2917 85.2914C45.1107 86.0563 42.9931 84.6731 43.0369 82.4859L43.0541 81.7424L51.1463 70.7224L59.2268 59.7181L58.39 58.6796C57.2664 57.3054 56.6898 55.6558 56.6841 53.8952C56.6959 51.489 56.8088 51.3048 62.3414 43.8168C67.1025 37.3639 67.2194 37.2071 67.8762 37.0136C68.6268 36.7925 69.8365 36.9379 70.3699 37.3356C70.5739 37.4876 70.9 37.9014 71.0773 38.2531Z" fill="url(#paint0_linear_2_61)"/>
<defs>
<linearGradient id="paint0_linear_2_61" x1="40.0885" y1="110.059" x2="198.951" y2="-72.1118" gradientUnits="userSpaceOnUse">
<stop stop-color="#DD2F2F"/>
<stop offset="1" stop-color="#FF0000" stop-opacity="0"/>
</linearGradient>
</defs>
</svg>
