<svg id="visual" viewBox="0 0 900 600" width="900" height="600" xmlns="http://www.w3.org/2000/svg" xmlns:xlink="http://www.w3.org/1999/xlink" version="1.1"><rect x="0" y="0" width="900" height="600" fill="#0D1117"></rect><defs><linearGradient id="grad1_0" x1="33.3%" y1="0%" x2="100%" y2="100%"><stop offset="20%" stop-color="#161b22" stop-opacity="1"></stop><stop offset="80%" stop-color="#161b22" stop-opacity="1"></stop></linearGradient></defs><defs><linearGradient id="grad1_1" x1="33.3%" y1="0%" x2="100%" y2="100%"><stop offset="20%" stop-color="#161b22" stop-opacity="1"></stop><stop offset="80%" stop-color="#12161c" stop-opacity="1"></stop></linearGradient></defs><defs><linearGradient id="grad1_2" x1="33.3%" y1="0%" x2="100%" y2="100%"><stop offset="20%" stop-color="#0d1117" stop-opacity="1"></stop><stop offset="80%" stop-color="#12161c" stop-opacity="1"></stop></linearGradient></defs><defs><linearGradient id="grad2_0" x1="0%" y1="0%" x2="66.7%" y2="100%"><stop offset="20%" stop-color="#161b22" stop-opacity="1"></stop><stop offset="80%" stop-color="#161b22" stop-opacity="1"></stop></linearGradient></defs><defs><linearGradient id="grad2_1" x1="0%" y1="0%" x2="66.7%" y2="100%"><stop offset="20%" stop-color="#12161c" stop-opacity="1"></stop><stop offset="80%" stop-color="#161b22" stop-opacity="1"></stop></linearGradient></defs><defs><linearGradient id="grad2_2" x1="0%" y1="0%" x2="66.7%" y2="100%"><stop offset="20%" stop-color="#12161c" stop-opacity="1"></stop><stop offset="80%" stop-color="#0d1117" stop-opacity="1"></stop></linearGradient></defs><g transform="translate(900, 0)"><path d="M0 486.7C-57.5 466.7 -115 446.6 -176.8 426.8C-238.6 407.1 -304.7 387.6 -344.2 344.2C-383.6 300.8 -396.4 233.6 -415.7 172.2C-435.1 110.9 -460.9 55.4 -486.7 0L0 0Z" fill="#10141a"></path><path d="M0 324.5C-38.3 311.1 -76.7 297.7 -117.9 284.6C-159.1 271.4 -203.2 258.4 -229.5 229.5C-255.8 200.5 -264.3 155.7 -277.2 114.8C-290 73.9 -307.3 37 -324.5 0L0 0Z" fill="#14191f"></path><path d="M0 162.2C-19.2 155.6 -38.3 148.9 -58.9 142.3C-79.5 135.7 -101.6 129.2 -114.7 114.7C-127.9 100.3 -132.1 77.9 -138.6 57.4C-145 37 -153.6 18.5 -162.2 0L0 0Z" fill="#161b22"></path></g><g transform="translate(0, 600)"><path d="M0 -486.7C61.1 -464 122.1 -441.3 169.5 -409.3C217 -377.3 250.8 -336 300.5 -300.5C350.3 -265 416 -235.4 449.7 -186.3C483.4 -137.2 485.1 -68.6 486.7 0L0 0Z" fill="#10141a"></path><path d="M0 -324.5C40.7 -309.3 81.4 -294.2 113 -272.9C144.6 -251.5 167.2 -224 200.3 -200.3C233.5 -176.7 277.3 -156.9 299.8 -124.2C322.3 -91.4 323.4 -45.7 324.5 0L0 0Z" fill="#14191f"></path><path d="M0 -162.2C20.4 -154.7 40.7 -147.1 56.5 -136.4C72.3 -125.8 83.6 -112 100.2 -100.2C116.8 -88.3 138.7 -78.5 149.9 -62.1C161.1 -45.7 161.7 -22.9 162.2 0L0 0Z" fill="#161b22"></path></g></svg>